<svg version="1.1" id="Layer_1" xmlns="http://www.w3.org/2000/svg" xmlns:xlink="http://www.w3.org/1999/xlink" x="0px" y="0px"
	 width="100%" viewBox="0 0 1008 1024" enable-background="new 0 0 1008 1024" xml:space="preserve">
<path fill="#000000" opacity="1.000000" stroke="none" 
	d="
M739.277954,457.024933 
	C739.116882,464.011597 737.155090,469.067780 731.644836,473.703339 
	C709.723145,492.144806 688.392639,511.288330 666.793152,530.114380 
	C664.396973,532.202820 663.284668,534.912170 662.192688,537.700195 
	C647.798645,574.452148 633.449219,611.221619 619.014771,647.957703 
	C605.494507,682.367371 591.836731,716.723022 578.389404,751.161011 
	C576.960083,754.821472 575.055054,756.314514 571.066101,756.298462 
	C538.567261,756.167236 506.067261,756.141052 473.568665,756.298340 
	C468.998871,756.320435 466.803131,754.705078 465.140747,750.462341 
	C437.372528,679.592834 409.433807,608.790161 381.594574,537.948425 
	C380.025330,533.955078 377.684631,530.792847 374.441559,527.978149 
	C352.544830,508.973724 330.787262,489.808990 308.893372,470.801331 
	C306.169006,468.436127 304.972687,465.913574 304.685944,462.274414 
	C303.064850,441.697845 300.644104,421.170959 299.566559,400.571136 
	C299.102295,391.695526 295.639526,385.317474 289.917419,379.129944 
	C281.889832,370.449280 274.498932,361.183136 266.647461,352.334473 
	C264.087952,349.449860 263.716583,347.098877 265.485779,343.480835 
	C286.563141,300.377960 307.451935,257.182892 328.379333,214.006729 
	C329.023895,212.676880 329.984802,211.440033 329.783081,209.192291 
	C314.206818,199.530823 298.303833,189.666718 282.400848,179.802597 
	C282.549255,179.340042 282.697662,178.877472 282.846069,178.414917 
	C442.176819,178.414917 601.507568,178.414917 760.938049,178.414917 
	C760.849670,180.960526 758.674988,181.244049 757.260010,182.132568 
	C743.997498,190.460709 730.764893,198.841568 717.350342,206.919281 
	C713.818176,209.046188 713.531372,210.856979 715.285339,214.428696 
	C736.214172,257.046783 756.934387,299.767334 777.881226,342.376495 
	C779.813049,346.306122 780.051270,349.009613 776.911682,352.511475 
	C767.906738,362.555511 759.438904,373.079956 750.484131,383.170776 
	C747.142212,386.936615 744.963745,390.816986 744.548889,395.913849 
	C742.902405,416.140778 741.059631,436.351746 739.277954,457.024933 
M315.880859,186.127594 
	C314.131500,186.356964 312.264679,185.643677 309.942047,187.114594 
	C312.108337,188.545578 313.944244,189.829300 315.847137,191.004501 
	C338.374939,204.917450 360.910980,218.817032 383.448242,232.714630 
	C428.526154,260.511902 473.617706,288.287079 518.652710,316.153625 
	C521.016602,317.616302 522.693909,317.507233 524.955505,316.045990 
	C532.787231,310.985962 540.734497,306.103210 548.674438,301.212524 
	C608.939148,264.091858 669.214417,226.988388 729.472229,189.856430 
	C730.886597,188.984818 732.686951,188.409210 733.518921,186.123932 
	C594.290161,186.123932 455.536621,186.123932 315.880859,186.127594 
M577.021729,646.498352 
	C577.021729,651.944519 577.021729,657.390747 577.021729,662.836914 
	C579.441650,658.134766 581.089172,653.316345 582.455383,648.419556 
	C599.313354,587.995911 616.127319,527.559998 632.959839,467.129242 
	C637.695190,450.128754 642.478394,433.141571 647.178162,416.131287 
	C647.952759,413.327637 648.992126,410.249481 644.737122,408.579834 
	C621.786011,441.557037 598.935608,474.389526 576.085205,507.222046 
	C575.615540,507.054474 575.145813,506.886902 574.676147,506.719330 
	C573.202637,496.832428 574.792297,486.746094 573.504944,475.268341 
	C556.091492,505.100952 539.394592,533.705994 521.815979,563.821594 
	C504.474548,533.941284 487.974792,505.511169 471.475006,477.081055 
	C470.700745,477.290131 469.926453,477.499176 469.152191,477.708252 
	C469.152191,487.283081 469.152191,496.857880 469.152191,506.432709 
	C468.605194,506.512085 468.058197,506.591461 467.511200,506.670837 
	C463.695709,501.276733 459.844299,495.907593 456.070801,490.484253 
	C437.801453,464.227081 419.565674,437.946564 401.260620,411.714355 
	C400.327789,410.377563 399.599365,407.911072 397.171356,409.121887 
	C394.865356,410.271851 395.464966,412.355316 396.047791,414.382416 
	C397.518585,419.498169 398.854919,424.652344 400.281494,429.781006 
	C417.449310,491.502045 434.616119,553.223389 451.801331,614.939575 
	C456.522491,631.894226 461.303986,648.832092 466.057770,665.777649 
	C466.426270,665.736633 466.794769,665.695557 467.163269,665.654480 
	C467.163269,647.095886 467.163269,628.537292 467.163269,609.775879 
	C469.294312,610.469849 469.576721,611.910339 470.190674,613.032104 
	C478.267761,627.790222 486.415436,642.511536 494.283447,657.380737 
	C496.015137,660.653320 498.041260,661.821289 501.679626,661.768433 
	C515.174622,661.572327 528.675903,661.555542 542.170654,661.752441 
	C546.047485,661.809021 548.154846,660.435791 549.938293,657.012146 
	C557.632568,642.241455 565.589233,627.607056 573.519775,612.960632 
	C574.221924,611.663818 574.378479,609.570068 577.027405,609.746216 
	C577.027405,621.691895 577.027405,633.595520 577.021729,646.498352 
M335.060608,419.447784 
	C337.711151,422.437286 340.377502,425.412903 343.008972,428.419098 
	C348.315643,434.481628 348.276001,434.445190 354.777954,429.669739 
	C381.611603,409.961365 408.468323,390.284393 435.311615,370.589142 
	C441.979706,365.696625 448.629120,360.778717 455.351013,355.825409 
	C453.456787,352.891205 450.733246,352.307312 448.395721,351.199615 
	C402.069763,329.245819 355.703613,307.376526 309.433746,285.305359 
	C305.313660,283.340057 303.459564,283.889648 301.517853,288.004730 
	C293.493347,305.011292 285.134338,321.859650 276.979431,338.805237 
	C272.390442,348.340973 271.819305,345.830505 278.955353,354.134247 
	C297.507843,375.722504 316.053497,397.316620 335.060608,419.447784 
M711.851257,415.362732 
	C730.316772,393.916870 748.740845,372.434998 767.297791,351.068573 
	C769.744507,348.251465 770.001953,345.851959 768.399414,342.544556 
	C759.689392,324.567932 751.020325,306.568390 742.651123,288.431885 
	C740.536255,283.848785 738.542175,283.290619 734.012817,285.455200 
	C687.755493,307.561615 641.384888,329.430847 595.065247,351.407166 
	C592.888428,352.439972 590.344238,353.078491 589.071838,355.454712 
	C589.716492,357.290863 591.303345,357.994385 592.623596,358.966248 
	C609.115051,371.106140 625.590881,383.267365 642.105652,395.375488 
	C658.485962,407.385132 674.961914,419.265533 691.262146,431.382507 
	C694.580872,433.849518 696.645264,433.441437 699.099792,430.359650 
	C703.038635,425.414032 707.281677,420.710754 711.851257,415.362732 
M582.993896,348.223846 
	C629.214844,326.276245 675.435791,304.328644 722.990479,281.747772 
	C720.591858,281.437897 719.661987,281.212708 718.732056,281.212738 
	C679.109863,281.213684 639.487671,281.241028 599.865479,281.236908 
	C597.618042,281.236664 595.691833,281.874664 593.778931,283.065002 
	C577.104919,293.440796 560.383911,303.741089 543.692200,314.088379 
	C541.886658,315.207642 539.889587,316.138916 538.781555,318.054474 
	C539.017700,319.855164 540.391296,320.630951 541.559326,321.501221 
	C553.303589,330.251465 565.085938,338.950775 576.814331,347.722198 
	C578.593689,349.052948 580.325134,349.513428 582.993896,348.223846 
M483.551270,303.984894 
	C472.778900,297.342346 461.953003,290.784027 451.269043,284.002197 
	C448.335022,282.139771 445.443970,281.180908 441.950562,281.187592 
	C403.805084,281.260681 365.659393,281.221405 327.513794,281.248352 
	C326.090454,281.249359 324.518585,280.803284 323.042908,282.142365 
	C323.999146,283.867584 325.746033,284.385071 327.340240,285.126007 
	C337.003296,289.617126 346.686768,294.065613 356.313568,298.633392 
	C391.063019,315.121490 425.802887,331.629791 460.507324,348.212280 
	C462.891174,349.351349 464.613983,349.423279 466.830811,347.744781 
	C478.648376,338.796967 490.600555,330.027191 502.477509,321.157471 
	C503.606110,320.314636 505.211304,319.736267 505.125000,317.438232 
	C498.254547,313.152191 491.211578,308.758484 483.551270,303.984894 
M487.514648,747.869019 
	C512.506287,747.863342 537.499084,747.727234 562.488525,747.959534 
	C567.618530,748.007263 569.189392,746.375793 568.915405,741.374390 
	C568.341980,730.904297 568.042297,720.408630 568.033264,709.923157 
	C568.029419,705.470032 566.386353,704.277649 562.129578,704.301331 
	C534.972961,704.452271 507.814789,704.440979 480.658020,704.304626 
	C476.442169,704.283508 475.210327,705.843872 475.252899,709.893494 
	C475.349121,719.048401 474.983582,728.198547 474.518890,737.355469 
	C473.889771,749.752686 473.352783,747.656555 484.522583,747.869995 
	C485.188782,747.882751 485.855438,747.869873 487.514648,747.869019 
M423.781799,389.306671 
	C419.357086,392.559570 415.067810,396.021423 410.467041,399.002625 
	C406.414368,401.628632 405.747772,403.874573 408.771667,408.133575 
	C422.354858,427.264771 435.513214,446.696960 448.972931,465.916840 
	C452.497375,470.949585 455.576233,476.389435 460.487671,481.353790 
	C460.487671,441.404694 460.487671,402.430725 460.487671,362.483063 
	C447.929810,371.661713 436.144897,380.275391 423.781799,389.306671 
M586.640076,365.042969 
	C580.526733,362.346344 583.121826,367.782440 583.112854,369.371613 
	C582.916748,404.188812 582.926941,439.007263 582.943298,473.825470 
	C582.944275,475.988068 582.587891,478.285339 583.841614,480.722992 
	C584.781738,479.731232 585.433533,479.197235 585.897278,478.532135 
	C602.565613,454.625275 619.190918,430.688324 635.901001,406.810699 
	C638.047485,403.743530 637.253113,401.977417 634.404175,399.918762 
	C618.610291,388.506012 602.934204,376.930328 586.640076,365.042969 
M325.557709,420.918030 
	C320.058899,414.663422 315.202393,407.809326 308.592682,401.880737 
	C308.374786,403.136505 308.181183,403.631622 308.221954,404.106689 
	C309.872650,423.344971 311.551514,442.580811 313.203491,461.819000 
	C313.379700,463.871063 314.764069,465.061279 316.139587,466.271332 
	C332.527405,480.687988 348.912933,495.107269 365.332672,509.487488 
	C366.734436,510.715118 368.127686,512.243469 370.972778,511.929138 
	C370.059113,509.230865 369.357513,506.879608 368.475311,504.598175 
	C362.287048,488.594208 355.853302,472.681183 349.931305,456.579773 
	C346.728912,447.872742 342.894531,439.758789 336.251343,433.088684 
	C332.614014,429.436646 329.406586,425.356384 325.557709,420.918030 
M681.174866,489.568695 
	C678.265930,497.029205 675.356995,504.489685 672.417114,512.029541 
	C674.674194,512.660706 675.337280,511.780945 676.063477,511.150970 
	C693.534851,495.992889 710.983459,480.808655 728.475769,465.674744 
	C730.310608,464.087311 730.614441,462.145111 730.812195,459.908417 
	C732.319641,442.864166 733.955200,425.831268 735.479309,408.788452 
	C735.690247,406.430328 735.508484,404.037079 735.508484,400.586060 
	C729.209778,407.882599 723.702881,414.322113 718.130493,420.704346 
	C707.307312,433.100311 696.487732,445.353577 691.764038,461.820312 
	C689.114685,471.055481 684.925110,479.848816 681.174866,489.568695 
M512.407898,414.520142 
	C514.046082,411.550323 511.268463,410.269226 509.897949,408.785553 
	C498.368103,396.304108 486.713745,383.937195 475.037384,371.592072 
	C473.647766,370.122894 472.390259,368.283356 469.807495,367.743744 
	C469.807495,389.762115 469.807495,411.419739 469.807495,434.026825 
	C484.348572,427.393585 498.101990,421.119629 512.407898,414.520142 
M570.098267,432.055115 
	C571.167664,432.404327 572.178772,433.204437 573.595215,432.367828 
	C573.595215,411.129791 573.595215,389.780975 573.595215,367.062683 
	C557.893188,382.499329 543.965454,397.803558 529.306458,413.651733 
	C543.143677,419.910828 556.288513,425.856781 570.098267,432.055115 
M475.338348,691.057983 
	C474.866577,694.747925 475.957458,696.792114 480.197144,696.157227 
	C482.310608,695.840759 484.521210,695.919434 486.663605,696.102722 
	C490.940369,696.468750 492.119324,694.377258 491.990509,690.445801 
	C491.554230,677.131409 491.121429,663.900330 482.426178,652.632812 
	C480.528625,650.173950 479.480682,647.068848 477.951233,644.311401 
	C477.390656,643.300781 477.156647,641.844238 475.338776,641.642639 
	C475.338776,657.953125 475.338776,674.053345 475.338348,691.057983 
M553.010010,676.299316 
	C552.760803,679.437927 552.397217,682.572388 552.283264,685.715881 
	C551.895752,696.398132 551.927856,696.212158 562.619873,696.125244 
	C566.918762,696.090271 567.950134,694.287354 567.970520,690.420471 
	C568.017639,681.460327 568.473633,672.503113 568.623047,663.542419 
	C568.740295,656.507812 568.646545,649.469666 568.646545,642.433167 
	C568.214661,642.340820 567.782776,642.248535 567.350952,642.156250 
	C564.291504,647.791443 561.298401,653.463928 558.153076,659.050720 
	C555.281433,664.151611 552.528992,669.247803 553.010010,676.299316 
z"/>
</svg>